<svg width="45" height="45" viewBox="0 0 45 45" fill="none" xmlns="http://www.w3.org/2000/svg">
<circle cx="22.5" cy="22.5" r="22" stroke="#DDDDDD"/>
<path d="M21.6791 31.9278H23.4716C23.4716 31.9278 24.0137 31.8685 24.2891 31.5723C24.544 31.3005 24.5346 30.7901 24.5346 30.7901C24.5346 30.7901 24.4989 28.4006 25.6164 28.0491C26.7169 27.7028 28.1308 30.3583 29.6292 31.3808C30.762 32.1536 31.6228 31.9843 31.6228 31.9843L35.6298 31.9284C35.6298 31.9284 37.7265 31.7998 36.7326 30.1627C36.6518 30.0289 36.1531 28.9523 33.7529 26.7397C31.2401 24.4229 31.5777 24.7994 34.6043 20.7932C36.4478 18.3537 37.1844 16.8638 36.9541 16.2272C36.735 15.6202 35.379 15.7802 35.379 15.7802L30.8709 15.8064C30.8709 15.8064 30.5369 15.7616 30.2879 15.9089C30.0459 16.0543 29.8906 16.3895 29.8906 16.3895C29.8906 16.3895 29.1763 18.278 28.2234 19.883C26.2152 23.2706 25.4107 23.4493 25.0825 23.2386C24.3196 22.7486 24.5106 21.2681 24.5106 20.2182C24.5106 16.9348 25.011 15.5661 23.5337 15.2122C23.0427 15.0947 22.6823 15.0167 21.4277 15.0039C19.8186 14.987 18.4555 15.0097 17.685 15.3839C17.1711 15.6336 16.7755 16.1905 17.0175 16.2219C17.3158 16.2609 17.9909 16.4024 18.3489 16.8865C18.8118 17.5104 18.7954 18.9147 18.7954 18.9147C18.7954 18.9147 19.0615 22.7789 18.1749 23.2596C17.5654 23.589 16.731 22.9168 14.9402 19.8423C14.0231 18.2687 13.3293 16.5275 13.3293 16.5275C13.3293 16.5275 13.1963 16.2033 12.9578 16.0305C12.6689 15.8198 12.264 15.7529 12.264 15.7529L7.97743 15.7791C7.97743 15.7791 7.33401 15.7977 7.09786 16.0753C6.88807 16.3232 7.08086 16.833 7.08086 16.833C7.08086 16.833 10.4374 24.6295 14.237 28.5612C17.7225 32.1647 21.6791 31.9278 21.6791 31.9278Z" fill="black"/>
</svg>
