<svg width="45" height="45" viewBox="0 0 45 45" fill="none" xmlns="http://www.w3.org/2000/svg">
<circle cx="22.5" cy="22.5" r="22" stroke="#DDDDDD"/>
<path d="M30.375 12H14.625C13.1771 12 12 13.1771 12 14.625V30.375C12 31.8229 13.1771 33 14.625 33H22.5V25.7812H19.875V22.5H22.5V19.875C22.5 17.7004 24.2629 15.9375 26.4375 15.9375H29.0625V19.2188H27.75C27.0257 19.2188 26.4375 19.1507 26.4375 19.875V22.5H29.7188L28.4062 25.7812H26.4375V33H30.375C31.8229 33 33 31.8229 33 30.375V14.625C33 13.1771 31.8229 12 30.375 12Z" fill="black"/>
</svg>
