<svg width="45" height="45" viewBox="0 0 45 45" fill="none" xmlns="http://www.w3.org/2000/svg">
<circle cx="22.5" cy="22.5" r="22" stroke="#DDDDDD"/>
<path d="M22.5 24.6H28.441C27.5735 27.0445 25.2385 28.8 22.5 28.8C19.0265 28.8 16.2 25.9735 16.2 22.5C16.2 19.0265 19.0265 16.2 22.5 16.2C24.0054 16.2 25.4544 16.7394 26.5806 17.7205L29.3401 14.5535C27.4494 12.9069 25.022 12 22.5 12C16.7106 12 12 16.7106 12 22.5C12 28.2894 16.7106 33 22.5 33C28.2894 33 33 28.2894 33 22.5V20.4H22.5V24.6Z" fill="black"/>
</svg>
